<svg data-name="date icon" xmlns="http://www.w3.org/2000/svg" width="27.829" height="31.333" viewBox="0 0 27.829 31.333">
    <path data-name="Path 32" d="M199.505 132c.179.055.361.1.536.168a2.354 2.354 0 0 1 1.481 2.156v1.091h.93a3.614 3.614 0 0 1 3.46 2.453 2.209 2.209 0 0 1 .106.7q.006 8.733 0 17.467c0 1.284-.009 2.568.007 3.852a3.286 3.286 0 0 1-2.032 3.1 3.4 3.4 0 0 1-1.59.343H181.92a3.662 3.662 0 0 1-3.724-3.756v-20.483a3.649 3.649 0 0 1 3.669-3.681h1.206v-.886a2.3 2.3 0 0 1 1.908-2.477.274.274 0 0 0 .073-.049h.6a.682.682 0 0 0 .131.062 2.214 2.214 0 0 1 1.777 1.829 7 7 0 0 1 .053 1.276c0 .17.042.253.234.251q.969-.013 1.939 0c.188 0 .242-.072.236-.247a16.63 16.63 0 0 1 0-.865 2.316 2.316 0 0 1 1.678-2.204l.34-.1h.537a.6.6 0 0 0 .132.061 2.249 2.249 0 0 1 1.6 1.218 2.765 2.765 0 0 1 .257 1.418v.691h2.388v-1.066a2.351 2.351 0 0 1 1.676-2.221c.113-.033.224-.068.337-.1zm-19.181 8.779v18.785a1.522 1.522 0 0 0 1.658 1.647h20.359a1.525 1.525 0 0 0 1.659-1.654v-18.478c0-.1-.01-.192-.016-.3zm4-4.3v2.057a1.026 1.026 0 1 0 2.045.026q.017-2.1 0-4.2a1.024 1.024 0 1 0-2.043.033c-.002.693-.001 1.389-.001 2.085zm8.983-.01v-2.087a1.05 1.05 0 0 0-.98-1.1 1.038 1.038 0 0 0-1.055 1.034q-.031 2.146 0 4.293a1.027 1.027 0 0 0 1.059 1.055 1.054 1.054 0 0 0 .979-1.133l-.002-2.062zm4.923-.022c0 .745-.014 1.491.005 2.236a1 1 0 0 0 1.972.236 1.9 1.9 0 0 0 .06-.5c.007-.566 0-1.133 0-1.7 0-.755 0-1.511-.006-2.266a1.584 1.584 0 0 0-.061-.44 1 1 0 0 0-1.966.228c-.018.735-.002 1.471-.003 2.206z" transform="translate(-178.198 -132)" style="fill-rule:evenodd"/>
    <path data-name="Path 33" d="M339.4 421.713v3.453h-3.878v-3.453z" transform="translate(-326.129 -404.412)" style="fill-rule:evenodd"/>
    <path data-name="Path 34" d="M427.441 421.755v3.445h-3.888v-3.447z" transform="translate(-408.901 -404.452)" style="fill-rule:evenodd"/>
    <path data-name="Path 35" d="M250.623 424.809h-3.838a2.2 2.2 0 0 1-.029-.256c0-.973.009-1.947 0-2.92 0-.242.081-.3.31-.3 1.1.009 2.205 0 3.308 0 .158 0 .3-.009.294.221-.009 1.043-.008 2.086-.012 3.129a.591.591 0 0 1-.033.126z" transform="translate(-242.66 -404.055)" style="fill-rule:evenodd"/>
    <path data-name="Path 36" d="M515.568 424.773h-3.839a2.4 2.4 0 0 1-.029-.261c0-.973 0-1.947-.01-2.92 0-.234.072-.306.307-.3 1.1.012 2.205.007 3.308.006.155 0 .3-.015.3.217-.005 1.033 0 2.066 0 3.1a.976.976 0 0 1-.037.158z" transform="translate(-491.774 -404.013)" style="fill-rule:evenodd"/>
    <path data-name="Path 37" d="M339.394 343.34v3.418h-3.881v-3.418z" transform="translate(-326.119 -330.719)" style="fill-rule:evenodd"/>
    <path data-name="Path 38" d="M427.523 343.464v3.415h-3.884v-3.415z" transform="translate(-408.982 -330.836)" style="fill-rule:evenodd"/>
    <path data-name="Path 39" d="M335.008 500.291h3.877v3.438c-.122.007-.238.018-.354.018-1.073 0-2.146 0-3.22.007-.237 0-.331-.052-.327-.312.016-.944.007-1.888.009-2.832a6.06 6.06 0 0 1 .015-.319z" transform="translate(-325.622 -478.298)" style="fill-rule:evenodd"/>
    <path data-name="Path 40" d="M427.467 500.475v3.198c0 .17-.039.255-.23.254-1.173-.007-2.345-.006-3.518-.009a.93.93 0 0 1-.157-.03v-3.412z" transform="translate(-408.911 -478.471)" style="fill-rule:evenodd"/>
    <path data-name="Path 41" d="M248.672 342.933c.547 0 1.094.007 1.64 0 .209 0 .3.042.3.278-.012.974-.011 1.948 0 2.922 0 .2-.063.278-.273.277q-1.67-.01-3.34 0c-.211 0-.3-.051-.3-.282q.016-1.461 0-2.922c0-.207.066-.277.274-.273.566.011 1.133 0 1.7 0z" transform="translate(-242.605 -330.333)" style="fill-rule:evenodd"/>
    <path data-name="Path 42" d="M513.684 342.936c.547 0 1.094.008 1.64 0 .211 0 .3.045.3.278-.01.974-.006 1.948 0 2.922 0 .2-.064.279-.274.277q-1.685-.013-3.369 0c-.215 0-.269-.081-.268-.28q.009-1.461 0-2.922c0-.206.066-.278.275-.274.566.011 1.133 0 1.7 0z" transform="translate(-491.794 -330.333)" style="fill-rule:evenodd"/>
    <path data-name="Path 43" d="M246.767 500.393h3.842a2.63 2.63 0 0 1 .028.268c0 .964-.006 1.928 0 2.892 0 .215-.06.3-.287.295-1.113-.009-2.226 0-3.339 0-.167 0-.288-.017-.286-.234.009-1.033.008-2.067.012-3.1a.7.7 0 0 1 .03-.121z" transform="translate(-242.634 -478.394)" style="fill-rule:evenodd"/>
    <path data-name="Path 44" d="M511.828 500.4h3.846c.01.1.026.184.027.27 0 .964 0 1.928.008 2.891 0 .217-.065.3-.288.3-1.113-.009-2.226-.007-3.338-.006-.167 0-.285-.015-.283-.234.007-1.023 0-2.047 0-3.07a.956.956 0 0 1 .028-.151z" transform="translate(-491.876 -478.404)" style="fill-rule:evenodd"/>
</svg>
