<svg data-name="Top Menu" xmlns="http://www.w3.org/2000/svg" width="174" height="39" viewBox="0 0 174 39">
    <defs>
        <clipPath id="j5p6htze2a">
            <circle data-name="Ellipse 70" cx="17.136" cy="17.136" r="17.136"/>
        </clipPath>
    </defs>
    <path data-name="Rectangle 34" transform="translate(44)" style="fill:rgba(4,106,114,.14)" d="M0 0h70v39H0z"/>
    <path data-name="Path 75" d="m1293.333 49.667 5.754 5.754 5.754-5.754" transform="translate(-1239 -31.167)" style="stroke:#535353;fill:none"/>
    <path data-name="Path 689" d="M152.565 165.736c-1.151 0-2.3.007-3.452 0a2.133 2.133 0 0 1-2.106-1.66.8.8 0 0 1 .184-.65 14.1 14.1 0 0 0 4.563-8.342 44.232 44.232 0 0 0 .553-5.5 7.408 7.408 0 0 1 3.344-5.842 7.522 7.522 0 0 1 3.3-1.334c.292-.046.445-.138.36-.491a1.551 1.551 0 0 1 2.358-1.607 1.416 1.416 0 0 1 .692 1.621c-.105.409.155.436.43.489a7.847 7.847 0 0 1 6.029 4.723 6.868 6.868 0 0 1 .5 2.415 26.2 26.2 0 0 0 1.308 8.142 13.383 13.383 0 0 0 3.81 5.655.68.68 0 0 1 .218.838 2.2 2.2 0 0 1-2.154 1.547c-2.268 0-4.536.011-6.8-.01-.466 0-.627.131-.662.61a4.237 4.237 0 0 1-8.424-.212c-.007-.348-.221-.392-.5-.39-1.183.001-2.367-.003-3.551-.002zm8.21 3.01.35-.319c-.146-.094-.284-.254-.439-.273a2.539 2.539 0 0 1-2.247-2.262c-.02-.15-.19-.281-.29-.421-.1.164-.283.329-.28.492a3.063 3.063 0 0 0 2.906 2.783z" transform="translate(-146.996 -135.042)" style="fill:#707070;fill-rule:evenodd"/>
    <g data-name="Alarm Notification" transform="translate(-1096 -34)">
        <circle data-name="Ellipse 16" cx="9" cy="9" r="9" transform="translate(1111 34)" style="fill:#ee5151"/>
        <text data-name="3" transform="translate(1110 37)" style="font-size:10px;font-family:Arial-BoldMT,Arial;font-weight:700;fill:#fff"><tspan x="-2.781" y="9">3</tspan></text>
    </g>
    <g transform="translate(73.728 3)">
        <circle data-name="Ellipse 69" cx="17.136" cy="17.136" r="17.136" style="fill:#e60000"/>
        <g data-name="Group 131">
            <g data-name="Group 130" style="clip-path:url(#j5p6htze2a)">
                <g data-name="Group 129">
                    <path data-name="Path 694" d="M49.3 105.967c-1.1-2.091-8.207-3.4-8.207-3.4s-7.1 1.312-8.207 3.4c-.816 2.9-1.5 6.589-1.5 6.589H50.8a32.272 32.272 0 0 0-1.5-6.589z" transform="translate(-23.957 -78.284)" style="fill:#f1c9a5"/>
                    <path data-name="Path 695" d="M72.387 102.564s7.1 1.312 8.207 3.4a32.255 32.255 0 0 1 1.5 6.589h-9.707z" transform="translate(-55.251 -78.284)" style="fill:#e4b692"/>
                    <path data-name="Rectangle 107" transform="translate(15.203 20.029)" style="fill:#f1c9a5" d="M0 0h3.867v6.471H0z"/>
                    <path data-name="Rectangle 108" transform="translate(17.136 20.029)" style="fill:#e4b692" d="M0 0h1.933v6.471H0z"/>
                    <path data-name="Path 696" d="M64.22 87.6A3.047 3.047 0 0 0 67 89.175 3.476 3.476 0 0 0 68.087 89v-4.394H64.22z" transform="translate(-49.017 -64.577)" style="fill:#ddac8c;opacity:.1"/>
                    <path data-name="Path 697" d="M61.33 46.914c0-4.042-2.226-6.34-4.971-6.34s-4.971 2.3-4.971 6.34c0 5.437 2.226 7.319 4.971 7.319s4.971-2.108 4.971-7.319z" transform="translate(-39.222 -30.969)" style="fill:#f1c9a5"/>
                    <path data-name="Path 698" d="M85.739 66.289a1.786 1.786 0 0 1-1.357-2.168 1.932 1.932 0 0 1 1.906-1.829 1.786 1.786 0 0 1 1.356 2.168 1.932 1.932 0 0 1-1.905 1.829z" transform="translate(-64.389 -47.541)" style="fill:#e4b692"/>
                    <path data-name="Path 699" d="M46.61 64.462a1.786 1.786 0 0 1 1.356-2.168 1.932 1.932 0 0 1 1.907 1.829 1.787 1.787 0 0 1-1.357 2.168 1.932 1.932 0 0 1-1.906-1.829z" transform="translate(-35.558 -47.542)" style="fill:#f1c9a5"/>
                    <path data-name="Path 700" d="M77.358 46.914c0-4.042-2.226-6.34-4.971-6.34v13.659c2.745 0 4.971-2.108 4.971-7.319z" transform="translate(-55.251 -30.969)" style="fill:#e4b692"/>
                </g>
                <path data-name="Path 701" d="M49.3 108.043c-.645-1.221-3.334-2.176-5.46-2.759l-2.746 3.139-2.746-3.139c-2.127.584-4.815 1.538-5.46 2.759-.816 2.9-1.5 6.589-1.5 6.589H50.8a32.272 32.272 0 0 0-1.5-6.589z" transform="translate(-23.957 -80.36)" style="fill:#3595bb"/>
                <path data-name="Path 702" d="M51.21 48.4s3.512-2.4 3.925-3.719c-.041 1.2 0 2.272 0 2.272s3.43-3.388 3.1-6.156a5.819 5.819 0 0 0-7.6 1.446 6.483 6.483 0 0 0 .575 6.157z" transform="translate(-38.246 -30.52)" style="fill:#262421"/>
                <path data-name="Path 703" d="M82.342 44.531a11.065 11.065 0 0 1 1.942 5.826c1.157-1.694 2.4-6.611-1.446-6.941a8.034 8.034 0 0 0-.496 1.115z" transform="translate(-62.849 -33.138)" style="fill:#262421"/>
                <path data-name="Path 704" d="m75.926 108.453-2.149-2-1.405 1.337 2.335-3.334a1.308 1.308 0 0 1 1.032.914c.085 1.306.187 3.083.187 3.083z" transform="translate(-55.24 -79.73)" style="fill:#fff"/>
                <path data-name="Path 705" d="M69.179 122.434h.759v-6.209l-.759-.719z" transform="translate(-52.802 -88.161)" style="fill:#27aae1"/>
                <path data-name="Path 706" d="m57.359 108.453 2.149-2 1.405 1.337-2.335-3.334a1.308 1.308 0 0 0-1.032.914c-.085 1.306-.187 3.083-.187 3.083z" transform="translate(-43.781 -79.73)" style="fill:#fff"/>
            </g>
        </g>
    </g>
    <path data-name="Line 36" transform="translate(140 8.5)" style="stroke:#707070;stroke-width:3px;fill:none" d="M0 0h34"/>
    <path data-name="Line 37" transform="translate(140 19.5)" style="stroke:#707070;stroke-width:3px;fill:none" d="M0 0h34"/>
    <path data-name="Line 38" transform="translate(140 30.5)" style="stroke:#707070;stroke-width:3px;fill:none" d="M0 0h34"/>
</svg>
